
<svg aria-hidden="true" style="position: absolute; width: 0; height: 0; overflow: hidden;" version="1.1" xmlns="http://www.w3.org/2000/svg" xmlns:xlink="http://www.w3.org/1999/xlink">
<defs>
<symbol id="menu_icon" viewBox="0 0 47 32">
<path stroke-linejoin="miter" stroke-linecap="round" stroke-miterlimit="4" stroke-width="3.0345" d="M1.962 1.851h43.65"></path>
<path stroke-linejoin="miter" stroke-linecap="round" stroke-miterlimit="4" stroke-width="3.0345" d="M1.962 15.857h43.65"></path>
<path stroke-linejoin="miter" stroke-linecap="round" stroke-miterlimit="4" stroke-width="3.0345" d="M1.962 29.862h43.65"></path>
</symbol>
<symbol id="icon-close" viewBox="0 0 32 32">
<path stroke-linejoin="miter" stroke-linecap="round" stroke-miterlimit="4" stroke-width="2.6667" d="M24 8l-16 16M24 24l-16-16"></path>
</symbol>
<symbol id="icon-Lightning-2" viewBox="0 0 25 32">
<path d="M23.313 11.132c1.811-0.731 1.959-3.237 0.247-4.176l-11.476-6.296c-0.999-0.548-2.248-0.288-2.945 0.613l-8.035 10.388c-0.855 1.105-0.544 2.709 0.662 3.415l1.618 0.947c0.93 0.544 1.362 1.658 1.041 2.687l-3.188 10.224c-0.703 2.254 2.023 3.99 3.769 2.401l12.357-11.252c0.959-0.873 0.796-2.425-0.324-3.080-1.378-0.806-1.229-2.843 0.251-3.441l6.021-2.43z"></path>
</symbol>
<symbol id="icon-facebook" viewBox="0 0 32 32">
<path d="M29 0h-26c-1.65 0-3 1.35-3 3v26c0 1.65 1.35 3 3 3h13v-14h-4v-4h4v-2c0-3.306 2.694-6 6-6h4v4h-4c-1.1 0-2 0.9-2 2v2h6l-1 4h-5v14h9c1.65 0 3-1.35 3-3v-26c0-1.65-1.35-3-3-3z"></path>
</symbol>
<symbol id="icon-instagram" viewBox="0 0 32 32">
<path d="M16 2.881c4.275 0 4.781 0.019 6.462 0.094 1.563 0.069 2.406 0.331 2.969 0.55 0.744 0.288 1.281 0.638 1.837 1.194 0.563 0.563 0.906 1.094 1.2 1.838 0.219 0.563 0.481 1.412 0.55 2.969 0.075 1.688 0.094 2.194 0.094 6.463s-0.019 4.781-0.094 6.463c-0.069 1.563-0.331 2.406-0.55 2.969-0.288 0.744-0.637 1.281-1.194 1.837-0.563 0.563-1.094 0.906-1.837 1.2-0.563 0.219-1.413 0.481-2.969 0.55-1.688 0.075-2.194 0.094-6.463 0.094s-4.781-0.019-6.463-0.094c-1.563-0.069-2.406-0.331-2.969-0.55-0.744-0.288-1.281-0.637-1.838-1.194-0.563-0.563-0.906-1.094-1.2-1.837-0.219-0.563-0.481-1.413-0.55-2.969-0.075-1.688-0.094-2.194-0.094-6.463s0.019-4.781 0.094-6.463c0.069-1.563 0.331-2.406 0.55-2.969 0.288-0.744 0.638-1.281 1.194-1.838 0.563-0.563 1.094-0.906 1.838-1.2 0.563-0.219 1.412-0.481 2.969-0.55 1.681-0.075 2.188-0.094 6.463-0.094zM16 0c-4.344 0-4.887 0.019-6.594 0.094-1.7 0.075-2.869 0.35-3.881 0.744-1.056 0.412-1.95 0.956-2.837 1.85-0.894 0.888-1.438 1.781-1.85 2.831-0.394 1.019-0.669 2.181-0.744 3.881-0.075 1.713-0.094 2.256-0.094 6.6s0.019 4.887 0.094 6.594c0.075 1.7 0.35 2.869 0.744 3.881 0.413 1.056 0.956 1.95 1.85 2.837 0.887 0.887 1.781 1.438 2.831 1.844 1.019 0.394 2.181 0.669 3.881 0.744 1.706 0.075 2.25 0.094 6.594 0.094s4.888-0.019 6.594-0.094c1.7-0.075 2.869-0.35 3.881-0.744 1.050-0.406 1.944-0.956 2.831-1.844s1.438-1.781 1.844-2.831c0.394-1.019 0.669-2.181 0.744-3.881 0.075-1.706 0.094-2.25 0.094-6.594s-0.019-4.887-0.094-6.594c-0.075-1.7-0.35-2.869-0.744-3.881-0.394-1.063-0.938-1.956-1.831-2.844-0.887-0.887-1.781-1.438-2.831-1.844-1.019-0.394-2.181-0.669-3.881-0.744-1.712-0.081-2.256-0.1-6.6-0.1v0z"></path>
<path d="M16 7.781c-4.537 0-8.219 3.681-8.219 8.219s3.681 8.219 8.219 8.219 8.219-3.681 8.219-8.219c0-4.537-3.681-8.219-8.219-8.219zM16 21.331c-2.944 0-5.331-2.387-5.331-5.331s2.387-5.331 5.331-5.331c2.944 0 5.331 2.387 5.331 5.331s-2.387 5.331-5.331 5.331z"></path>
<path d="M26.462 7.456c0 1.060-0.859 1.919-1.919 1.919s-1.919-0.859-1.919-1.919c0-1.060 0.859-1.919 1.919-1.919s1.919 0.859 1.919 1.919z"></path>
</symbol>
<symbol id="icon-trash" fill='none' viewBox="0 0 24 24" xmlns="http://www.w3.org/2000/svg">
<path d="M4 6.17647H20M10 16.7647V10.4118M14 16.7647V10.4118M16 21H8C6.89543 21 6 20.0519 6 18.8824V7.23529C6 6.65052 6.44772 6.17647 7 6.17647H17C17.5523 6.17647 18 6.65052 18 7.23529V18.8824C18 20.0519 17.1046 21 16 21ZM10 6.17647H14C14.5523 6.17647 15 5.70242 15 5.11765V4.05882C15 3.47405 14.5523 3 14 3H10C9.44772 3 9 3.47405 9 4.05882V5.11765C9 5.70242 9.44772 6.17647 10 6.17647Z"  stroke-width="2" stroke-linecap="round" stroke-linejoin="round"/>
</symbol>
<symbol id="icon-arrow-left" viewBox="0 0 32 32">
<path d="M13.973 25.333c-0.35-0.001-0.685-0.14-0.933-0.387l-6.12-6.12c-0.749-0.75-1.17-1.767-1.17-2.827s0.421-2.077 1.17-2.827l6.12-6.12c0.25-0.248 0.588-0.388 0.94-0.388s0.69 0.139 0.94 0.388c0.125 0.124 0.224 0.271 0.292 0.434s0.103 0.337 0.103 0.513-0.035 0.35-0.103 0.513c-0.068 0.162-0.167 0.31-0.292 0.434l-6.12 6.107c-0.125 0.124-0.224 0.271-0.292 0.434s-0.103 0.337-0.103 0.513c0 0.176 0.035 0.35 0.103 0.513s0.167 0.31 0.292 0.434l6.12 6.107c0.125 0.124 0.224 0.271 0.292 0.434s0.103 0.337 0.103 0.513c0 0.176-0.035 0.35-0.103 0.513s-0.167 0.31-0.292 0.434c-0.125 0.123-0.272 0.221-0.435 0.288s-0.336 0.1-0.512 0.099z"></path>
<path d="M23.307 25.333c-0.35-0.001-0.685-0.14-0.933-0.387l-8-8c-0.125-0.124-0.224-0.271-0.292-0.434s-0.103-0.337-0.103-0.513c0-0.176 0.035-0.35 0.103-0.513s0.167-0.31 0.292-0.434l8-8c0.25-0.248 0.588-0.388 0.94-0.388s0.69 0.139 0.94 0.388c0.125 0.124 0.224 0.271 0.292 0.434s0.103 0.337 0.103 0.513-0.035 0.35-0.103 0.513c-0.068 0.162-0.167 0.31-0.292 0.434l-7.053 7.053 7.053 7.053c0.125 0.124 0.224 0.271 0.292 0.434s0.103 0.337 0.103 0.513c0 0.176-0.035 0.35-0.103 0.513s-0.167 0.31-0.292 0.434c-0.125 0.123-0.272 0.221-0.435 0.288s-0.336 0.1-0.512 0.099z"></path>
</symbol>
<symbol id="icon-arrow-right" viewBox="0 0 32 32">
<path d="M17.467 25.333c-0.264-0.001-0.521-0.080-0.74-0.228s-0.389-0.356-0.489-0.6-0.125-0.512-0.073-0.771c0.053-0.258 0.18-0.495 0.368-0.681l6.133-6.107c0.125-0.124 0.224-0.271 0.292-0.434s0.103-0.337 0.103-0.513c0-0.176-0.035-0.35-0.103-0.513s-0.167-0.31-0.292-0.434l-6.133-6.107c-0.125-0.124-0.224-0.271-0.292-0.434s-0.103-0.337-0.103-0.513 0.035-0.35 0.103-0.513c0.068-0.162 0.167-0.31 0.292-0.434 0.25-0.248 0.588-0.388 0.94-0.388s0.69 0.139 0.94 0.388l6.12 6.12c0.749 0.75 1.17 1.767 1.17 2.827s-0.421 2.077-1.17 2.827l-6.12 6.12c-0.125 0.123-0.272 0.221-0.435 0.288s-0.336 0.1-0.512 0.099z"></path>
<path d="M8.133 25.333c-0.264-0.001-0.521-0.080-0.74-0.228s-0.389-0.356-0.489-0.6-0.125-0.512-0.073-0.771c0.053-0.258 0.18-0.495 0.368-0.681l7.053-7.053-7.053-7.053c-0.125-0.124-0.224-0.271-0.292-0.434s-0.103-0.337-0.103-0.513c0-0.176 0.035-0.35 0.103-0.513s0.167-0.31 0.292-0.434c0.25-0.248 0.588-0.388 0.94-0.388s0.69 0.139 0.94 0.388l8 8c0.125 0.124 0.224 0.271 0.292 0.434s0.103 0.337 0.103 0.513c0 0.176-0.035 0.35-0.103 0.513s-0.167 0.31-0.292 0.434l-8 8c-0.125 0.123-0.272 0.221-0.435 0.288s-0.336 0.1-0.512 0.099z"></path>
</symbol>
<linearGradient id="paint0_linear_202_31" x1="24.1343" y1="2" x2="22.7724" y2="7.51564" gradientUnits="userSpaceOnUse">
<stop stop-color="#FF612E"/>
<stop offset="1" stop-color="#FFA32B"/>
</linearGradient>
<linearGradient id="paint1_linear_202_31" x1="24.1343" y1="10.3157" x2="22.7724" y2="15.8313" gradientUnits="userSpaceOnUse">
<stop stop-color="#FF612E"/>
<stop offset="1" stop-color="#FFA32B"/>
</linearGradient>
<linearGradient id="paint2_linear_202_31" x1="24.1343" y1="18.6314" x2="22.7724" y2="24.1471" gradientUnits="userSpaceOnUse">
<stop stop-color="#FF612E"/>
<stop offset="1" stop-color="#FFA32B"/>
</linearGradient>

</defs>
</svg>
