
<svg aria-hidden="true" style="position: absolute; width: 0; height: 0; overflow: hidden;" version="1.1" xmlns="http://www.w3.org/2000/svg" xmlns:xlink="http://www.w3.org/1999/xlink">
<defs>
<symbol id="menu_icon" viewBox="0 0 47 32">
<path stroke-linejoin="miter" stroke-linecap="round" stroke-miterlimit="4" stroke-width="3.0345" d="M1.962 1.851h43.65"></path>
<path stroke-linejoin="miter" stroke-linecap="round" stroke-miterlimit="4" stroke-width="3.0345" d="M1.962 15.857h43.65"></path>
<path stroke-linejoin="miter" stroke-linecap="round" stroke-miterlimit="4" stroke-width="3.0345" d="M1.962 29.862h43.65"></path>
</symbol>
<symbol id="icon-close" viewBox="0 0 32 32">
<path stroke-linejoin="miter" stroke-linecap="round" stroke-miterlimit="4" stroke-width="2.6667" d="M24 8l-16 16M24 24l-16-16"></path>
</symbol>
<symbol id="icon-Lightning-2" viewBox="0 0 25 32">
<path d="M23.313 11.132c1.811-0.731 1.959-3.237 0.247-4.176l-11.476-6.296c-0.999-0.548-2.248-0.288-2.945 0.613l-8.035 10.388c-0.855 1.105-0.544 2.709 0.662 3.415l1.618 0.947c0.93 0.544 1.362 1.658 1.041 2.687l-3.188 10.224c-0.703 2.254 2.023 3.99 3.769 2.401l12.357-11.252c0.959-0.873 0.796-2.425-0.324-3.080-1.378-0.806-1.229-2.843 0.251-3.441l6.021-2.43z"></path>
</symbol>
<symbol id="icon-arrow-left" viewBox="0 0 32 32">
<path d="M13.973 25.333c-0.35-0.001-0.685-0.14-0.933-0.387l-6.12-6.12c-0.749-0.75-1.17-1.767-1.17-2.827s0.421-2.077 1.17-2.827l6.12-6.12c0.25-0.248 0.588-0.388 0.94-0.388s0.69 0.139 0.94 0.388c0.125 0.124 0.224 0.271 0.292 0.434s0.103 0.337 0.103 0.513-0.035 0.35-0.103 0.513c-0.068 0.162-0.167 0.31-0.292 0.434l-6.12 6.107c-0.125 0.124-0.224 0.271-0.292 0.434s-0.103 0.337-0.103 0.513c0 0.176 0.035 0.35 0.103 0.513s0.167 0.31 0.292 0.434l6.12 6.107c0.125 0.124 0.224 0.271 0.292 0.434s0.103 0.337 0.103 0.513c0 0.176-0.035 0.35-0.103 0.513s-0.167 0.31-0.292 0.434c-0.125 0.123-0.272 0.221-0.435 0.288s-0.336 0.1-0.512 0.099z"></path>
<path d="M23.307 25.333c-0.35-0.001-0.685-0.14-0.933-0.387l-8-8c-0.125-0.124-0.224-0.271-0.292-0.434s-0.103-0.337-0.103-0.513c0-0.176 0.035-0.35 0.103-0.513s0.167-0.31 0.292-0.434l8-8c0.25-0.248 0.588-0.388 0.94-0.388s0.69 0.139 0.94 0.388c0.125 0.124 0.224 0.271 0.292 0.434s0.103 0.337 0.103 0.513-0.035 0.35-0.103 0.513c-0.068 0.162-0.167 0.31-0.292 0.434l-7.053 7.053 7.053 7.053c0.125 0.124 0.224 0.271 0.292 0.434s0.103 0.337 0.103 0.513c0 0.176-0.035 0.35-0.103 0.513s-0.167 0.31-0.292 0.434c-0.125 0.123-0.272 0.221-0.435 0.288s-0.336 0.1-0.512 0.099z"></path>
</symbol>
<symbol id="icon-arrow-right" viewBox="0 0 32 32">
<path d="M17.467 25.333c-0.264-0.001-0.521-0.080-0.74-0.228s-0.389-0.356-0.489-0.6-0.125-0.512-0.073-0.771c0.053-0.258 0.18-0.495 0.368-0.681l6.133-6.107c0.125-0.124 0.224-0.271 0.292-0.434s0.103-0.337 0.103-0.513c0-0.176-0.035-0.35-0.103-0.513s-0.167-0.31-0.292-0.434l-6.133-6.107c-0.125-0.124-0.224-0.271-0.292-0.434s-0.103-0.337-0.103-0.513 0.035-0.35 0.103-0.513c0.068-0.162 0.167-0.31 0.292-0.434 0.25-0.248 0.588-0.388 0.94-0.388s0.69 0.139 0.94 0.388l6.12 6.12c0.749 0.75 1.17 1.767 1.17 2.827s-0.421 2.077-1.17 2.827l-6.12 6.12c-0.125 0.123-0.272 0.221-0.435 0.288s-0.336 0.1-0.512 0.099z"></path>
<path d="M8.133 25.333c-0.264-0.001-0.521-0.080-0.74-0.228s-0.389-0.356-0.489-0.6-0.125-0.512-0.073-0.771c0.053-0.258 0.18-0.495 0.368-0.681l7.053-7.053-7.053-7.053c-0.125-0.124-0.224-0.271-0.292-0.434s-0.103-0.337-0.103-0.513c0-0.176 0.035-0.35 0.103-0.513s0.167-0.31 0.292-0.434c0.25-0.248 0.588-0.388 0.94-0.388s0.69 0.139 0.94 0.388l8 8c0.125 0.124 0.224 0.271 0.292 0.434s0.103 0.337 0.103 0.513c0 0.176-0.035 0.35-0.103 0.513s-0.167 0.31-0.292 0.434l-8 8c-0.125 0.123-0.272 0.221-0.435 0.288s-0.336 0.1-0.512 0.099z"></path>
</symbol>
<linearGradient id="paint0_linear_202_31" x1="24.1343" y1="2" x2="22.7724" y2="7.51564" gradientUnits="userSpaceOnUse">
<stop stop-color="#FF612E"/>
<stop offset="1" stop-color="#FFA32B"/>
</linearGradient>
<linearGradient id="paint1_linear_202_31" x1="24.1343" y1="10.3157" x2="22.7724" y2="15.8313" gradientUnits="userSpaceOnUse">
<stop stop-color="#FF612E"/>
<stop offset="1" stop-color="#FFA32B"/>
</linearGradient>
<linearGradient id="paint2_linear_202_31" x1="24.1343" y1="18.6314" x2="22.7724" y2="24.1471" gradientUnits="userSpaceOnUse">
<stop stop-color="#FF612E"/>
<stop offset="1" stop-color="#FFA32B"/>
</linearGradient>

</defs>
</svg>
